{
	"asset":{
		"generator":"Khronos glTF Blender I/O v4.1.63",
		"version":"2.0"
	},
	"scene":0,
	"scenes":[
		{
			"name":"Scene",
			"nodes":[
				3,
				4
			]
		}
	],
	"nodes":[
		{
			"mesh":0,
			"name":"Object_16",
			"rotation":[
				0,
				-0.9999919533729553,
				0,
				0.004015296697616577
			],
			"translation":[
				0,
				2.7544713020324707,
				0
			]
		},
		{
			"mesh":1,
			"name":"Object_17",
			"rotation":[
				0,
				-0.9999919533729553,
				0,
				0.004015296697616577
			],
			"translation":[
				0,
				2.7544713020324707,
				0
			]
		},
		{
			"children":[
				0,
				1
			],
			"mesh":2,
			"name":"Object_14"
		},
		{
			"children":[
				2
			],
			"name":"Cylinder.004_4",
			"translation":[
				-0.013855934143066406,
				2.034266471862793,
				0
			]
		},
		{
			"name":"Cylinder.005_5",
			"rotation":[
				0,
				-0.9999919533729553,
				0,
				0.00401529623195529
			],
			"translation":[
				-0.013855934143066406,
				4.788737773895264,
				0
			]
		}
	],
	"materials":[
		{
			"doubleSided":true,
			"name":"Material.008",
			"pbrMetallicRoughness":{
				"baseColorTexture":{
					"index":0
				},
				"metallicFactor":0
			}
		},
		{
			"doubleSided":true,
			"name":"Material.010",
			"pbrMetallicRoughness":{
				"baseColorFactor":[
					0,
					0,
					0,
					1
				],
				"metallicFactor":0,
				"roughnessFactor":0.5
			}
		},
		{
			"doubleSided":true,
			"name":"Material.009",
			"pbrMetallicRoughness":{
				"baseColorTexture":{
					"index":1
				},
				"metallicFactor":0,
				"roughnessFactor":0.5
			}
		}
	],
	"meshes":[
		{
			"name":"Object_7",
			"primitives":[
				{
					"attributes":{
						"POSITION":0,
						"NORMAL":1,
						"TEXCOORD_0":2
					},
					"indices":3,
					"material":0
				}
			]
		},
		{
			"name":"Object_8",
			"primitives":[
				{
					"attributes":{
						"POSITION":4,
						"NORMAL":5,
						"TEXCOORD_0":6
					},
					"indices":7,
					"material":1
				}
			]
		},
		{
			"name":"Object_6",
			"primitives":[
				{
					"attributes":{
						"POSITION":8,
						"NORMAL":9,
						"TEXCOORD_0":10
					},
					"indices":11,
					"material":2
				}
			]
		}
	],
	"textures":[
		{
			"sampler":0,
			"source":0
		},
		{
			"sampler":0,
			"source":0
		}
	],
	"images":[
		{
			"mimeType":"image/jpeg",
			"name":"Material.003_baseColor",
			"uri":"Material_003_baseColor.jpg"
		}
	],
	"accessors":[
		{
			"bufferView":0,
			"componentType":5126,
			"count":610,
			"max":[
				1.2567158937454224,
				0.5135900974273682,
				1.2567157745361328
			],
			"min":[
				-1.2567157745361328,
				-0.5104742646217346,
				-1.2567158937454224
			],
			"type":"VEC3"
		},
		{
			"bufferView":1,
			"componentType":5126,
			"count":610,
			"type":"VEC3"
		},
		{
			"bufferView":2,
			"componentType":5126,
			"count":610,
			"type":"VEC2"
		},
		{
			"bufferView":3,
			"componentType":5123,
			"count":960,
			"type":"SCALAR"
		},
		{
			"bufferView":4,
			"componentType":5126,
			"count":160,
			"max":[
				0.9998791217803955,
				0.5135900974273682,
				0.9998791217803955
			],
			"min":[
				-0.9998791217803955,
				-0.5104742646217346,
				-0.9998791217803955
			],
			"type":"VEC3"
		},
		{
			"bufferView":5,
			"componentType":5126,
			"count":160,
			"type":"VEC3"
		},
		{
			"bufferView":6,
			"componentType":5126,
			"count":160,
			"type":"VEC2"
		},
		{
			"bufferView":7,
			"componentType":5123,
			"count":282,
			"type":"SCALAR"
		},
		{
			"bufferView":8,
			"componentType":5126,
			"count":192,
			"max":[
				1,
				2.2475099563598633,
				1
			],
			"min":[
				-1,
				-2.2475101947784424,
				-1
			],
			"type":"VEC3"
		},
		{
			"bufferView":9,
			"componentType":5126,
			"count":192,
			"type":"VEC3"
		},
		{
			"bufferView":10,
			"componentType":5126,
			"count":192,
			"type":"VEC2"
		},
		{
			"bufferView":11,
			"componentType":5123,
			"count":372,
			"type":"SCALAR"
		}
	],
	"bufferViews":[
		{
			"buffer":0,
			"byteLength":7320,
			"byteOffset":0,
			"target":34962
		},
		{
			"buffer":0,
			"byteLength":7320,
			"byteOffset":7320,
			"target":34962
		},
		{
			"buffer":0,
			"byteLength":4880,
			"byteOffset":14640,
			"target":34962
		},
		{
			"buffer":0,
			"byteLength":1920,
			"byteOffset":19520,
			"target":34963
		},
		{
			"buffer":0,
			"byteLength":1920,
			"byteOffset":21440,
			"target":34962
		},
		{
			"buffer":0,
			"byteLength":1920,
			"byteOffset":23360,
			"target":34962
		},
		{
			"buffer":0,
			"byteLength":1280,
			"byteOffset":25280,
			"target":34962
		},
		{
			"buffer":0,
			"byteLength":564,
			"byteOffset":26560,
			"target":34963
		},
		{
			"buffer":0,
			"byteLength":2304,
			"byteOffset":27124,
			"target":34962
		},
		{
			"buffer":0,
			"byteLength":2304,
			"byteOffset":29428,
			"target":34962
		},
		{
			"buffer":0,
			"byteLength":1536,
			"byteOffset":31732,
			"target":34962
		},
		{
			"buffer":0,
			"byteLength":744,
			"byteOffset":33268,
			"target":34963
		}
	],
	"samplers":[
		{
			"magFilter":9729,
			"minFilter":9987
		}
	],
	"buffers":[
		{
			"byteLength":34012,
			"uri":"Pipe.bin"
		}
	]
}
